<svg width="41" height="40" viewBox="0 0 41 40" fill="none" xmlns="http://www.w3.org/2000/svg">
<path d="M12.3125 2.8125C11.25 2.8125 10.25 3.40625 9.71875 4.3125L1.5 18.5C0.96875 19.4375 0.96875 20.5625 1.5 21.5L9.6875 35.6875C10.25 36.5938 11.2188 37.1875 12.2812 37.1875H28.6562C29.7187 37.1875 30.7188 36.5938 31.25 35.6875L39.4375 21.5C39.9688 20.5625 39.9688 19.4375 39.4375 18.5L31.2812 4.3125C30.75 3.40625 29.75 2.8125 28.6875 2.8125H12.3125ZM12.4688 11.125H15.375C15.5 11.125 15.625 11.1875 15.6875 11.3125L20.4688 19.8438C20.5 19.875 20.5 19.9375 20.5 19.9688C20.5 19.9062 20.5312 19.875 20.5312 19.8438L25.3125 11.3125C25.375 11.1875 25.5 11.125 25.625 11.125H28.4375C28.6562 11.1562 28.8125 11.3438 28.7812 11.5625C28.7812 11.5938 28.7812 11.625 28.75 11.6875L24.125 20L28.8125 28.3438C28.9062 28.5312 28.8125 28.7812 28.625 28.8438C28.5937 28.875 28.5312 28.875 28.5 28.875H25.6562C25.5312 28.875 25.4062 28.8125 25.3438 28.6875L20.5312 20.1562C20.5 20.125 20.5 20.0625 20.5 20.0312C20.5 20.0938 20.4688 20.125 20.4688 20.1562L15.6562 28.6875C15.5938 28.8125 15.4688 28.875 15.3438 28.875H12.5312C12.3125 28.8438 12.1563 28.6562 12.1875 28.4688C12.1875 28.4375 12.2188 28.375 12.2188 28.3438L16.9062 20L12.2188 11.6562C12.125 11.4688 12.2188 11.25 12.4062 11.1562C12.4062 11.125 12.4375 11.125 12.4688 11.125Z" fill="#0EA5E9"/>
</svg>
