<svg width="40" height="40" viewBox="0 0 40 40" fill="none" xmlns="http://www.w3.org/2000/svg">
<path d="M19.9996 27.5246C24.1556 27.5246 27.5246 24.1556 27.5246 19.9996C27.5246 15.8437 24.1556 12.4746 19.9996 12.4746C15.8437 12.4746 12.4746 15.8437 12.4746 19.9996C12.4746 24.1556 15.8437 27.5246 19.9996 27.5246Z" fill="#4E8EF7"/>
<path d="M35.3562 7.23037C35.357 6.7341 35.2148 6.24811 34.9467 5.83047C34.6787 5.41284 34.296 5.08122 33.8445 4.87524C33.393 4.66926 32.8917 4.59764 32.4006 4.66892C31.9095 4.74021 31.4493 4.95139 31.075 5.27724C27.3464 2.47166 22.6928 1.18415 18.0524 1.67433C13.4121 2.1645 9.13016 4.3959 6.0701 7.91858C3.01003 11.4413 1.39945 15.9932 1.56311 20.6565C1.72677 25.3198 3.6525 29.7476 6.95199 33.0471C10.2515 36.3466 14.6793 38.2723 19.3426 38.436C24.0059 38.5996 28.5578 36.989 32.0805 33.929C35.6032 30.8689 37.8346 26.587 38.3248 21.9466C38.8149 17.3063 37.5274 12.6527 34.7218 8.92412C35.1311 8.45481 35.3565 7.85308 35.3562 7.23037ZM20 37.8116C17.1778 37.8139 14.3955 37.1456 11.8823 35.8618C9.36903 34.5779 7.19682 32.7153 5.5446 30.4274C3.89238 28.1394 2.80745 25.4916 2.37919 22.7021C1.95094 19.9126 2.19162 17.0613 3.0814 14.3831C3.97118 11.7049 5.4846 9.27642 7.49696 7.29779C9.50932 5.31916 11.963 3.847 14.6559 3.00261C17.3488 2.15822 20.2037 1.96576 22.9856 2.4411C25.7674 2.91644 28.3965 4.04597 30.6562 5.73662C30.3031 6.2344 30.1376 6.84108 30.1889 7.44921C30.2403 8.05734 30.5052 8.62768 30.9367 9.05923C31.3683 9.49077 31.9386 9.75567 32.5467 9.80701C33.1549 9.85835 33.7616 9.69282 34.2593 9.33974C36.2365 11.9869 37.4385 15.1317 37.7309 18.4228C38.0233 21.7138 37.3946 25.0214 35.915 27.9756C34.4355 30.9298 32.1634 33.4143 29.3529 35.1514C26.5423 36.8884 23.304 37.8095 20 37.8116Z" fill="#4E8EF7"/>
</svg>
