<svg width="40" height="40" viewBox="0 0 40 40" fill="none" xmlns="http://www.w3.org/2000/svg">
<path d="M26.9505 14.546C26.9414 15.5503 26.536 16.5104 25.8227 17.2173C25.1093 17.9243 24.1456 18.3209 23.1412 18.3209C22.1369 18.3209 21.1732 17.9243 20.4598 17.2173C19.7465 16.5104 19.3411 15.5503 19.332 14.546C19.332 12.4416 21.0373 10.7363 23.1417 10.7363C24.152 10.7365 25.1208 11.138 25.8351 11.8524C26.5493 12.5668 26.9506 13.5358 26.9505 14.546Z" fill="#FFC131"/>
<path d="M12.9248 25.4544C12.9248 24.4439 13.3262 23.4749 14.0407 22.7604C14.7552 22.0459 15.7242 21.6445 16.7346 21.6445C17.7451 21.6445 18.7141 22.0459 19.4286 22.7604C20.1431 23.4749 20.5445 24.4439 20.5445 25.4544C20.5445 27.5588 18.8392 29.2641 16.7348 29.2641C14.6304 29.2641 12.9248 27.5588 12.9248 25.4544Z" fill="#0EA5E9"/>
<path d="M31.0363 26.7619C29.5063 27.7513 27.8039 28.444 26.0178 28.8041C26.3905 27.7267 26.5804 26.5945 26.5794 25.4544C26.5798 25.0345 26.5545 24.615 26.5037 24.1982C27.2724 23.9305 28.0064 23.5719 28.69 23.1301C30.343 22.0617 31.6524 20.5387 32.4606 18.7441C33.0651 17.4021 33.3726 15.9454 33.3622 14.4736C33.3518 13.0018 33.0236 11.5496 32.4002 10.2163C31.7767 8.88306 30.8727 7.70014 29.7499 6.74846C28.6272 5.79678 27.3121 5.0988 25.8947 4.70224C23.9991 4.17252 21.9909 4.20114 20.1112 4.78468C18.2315 5.36822 16.5602 6.48186 15.2978 7.99192C15.1364 8.18517 14.9821 8.38426 14.8353 8.5888C12.8969 8.80425 11.0101 9.35227 9.25781 10.2088C9.96005 7.96031 11.1979 5.91605 12.865 4.25181C14.5321 2.58757 16.5784 1.35316 18.8281 0.654738C21.5033 -0.176403 24.3616 -0.217097 27.0594 0.53755C29.7572 1.29317 32.1803 2.81036 34.0356 4.90755C35.8909 7.00474 37.1022 9.59505 37.5231 12.3647C37.9432 15.1344 37.5546 17.9664 36.4038 20.5204C35.2531 23.0744 33.3892 25.2418 31.0363 26.7619ZM9.43125 12.8616L12.9969 13.2997C13.0807 12.6119 13.235 11.9345 13.4572 11.2782C12.0436 11.6016 10.6865 12.1356 9.43125 12.8616Z" fill="#FFC131"/>
<path d="M8.81427 13.2391C10.3559 12.2425 12.0724 11.547 13.873 11.1895C13.4572 12.3199 13.2452 13.5152 13.2468 14.7198C13.2468 15.0864 13.2664 15.4527 13.3055 15.8173C12.5523 16.0834 11.8329 16.437 11.1621 16.8707C9.50877 17.939 8.19921 19.4622 7.39083 21.257C6.58146 23.0513 6.30927 25.0423 6.60333 26.9882C6.89739 28.9341 7.74958 30.7541 9.05458 32.2288C10.3596 33.7035 12.0599 34.7691 13.9558 35.2988C15.8518 35.8285 17.8608 35.8004 19.7408 35.217C21.6207 34.6334 23.292 33.5194 24.554 32.0088C24.7154 31.8145 24.8701 31.6145 25.0177 31.4095C26.9576 31.1904 28.8452 30.6383 30.5974 29.7773C30.0279 31.6087 29.1014 33.3093 27.8715 34.781C26.0761 36.9311 23.6975 38.5165 21.0221 39.3463C18.3469 40.1775 15.4886 40.2182 12.7908 39.4635C10.0935 38.7081 7.67132 37.1908 5.81458 35.0935C3.95901 32.9952 2.74858 30.4058 2.32864 27.6363C1.90837 24.8667 2.29707 22.0347 3.44802 19.4807C4.59826 16.9267 6.46169 14.7594 8.81427 13.2391Z" fill="#0EA5E9"/>
</svg>
