<svg width="41" height="40" viewBox="0 0 41 40" fill="none" xmlns="http://www.w3.org/2000/svg">
<g clip-path="url(#clip0_2105_648)">
<path d="M20.5 23.5625C22.4675 23.5625 24.0625 21.9675 24.0625 20C24.0625 18.0325 22.4675 16.4375 20.5 16.4375C18.5325 16.4375 16.9375 18.0325 16.9375 20C16.9375 21.9675 18.5325 23.5625 20.5 23.5625Z" fill="#0EA5E9"/>
<path d="M34.0312 14.125C33.3437 13.875 32.625 13.625 31.875 13.4063C32.0625 12.6563 32.2187 11.9063 32.3437 11.1875C33 7.0625 32.2812 4.15625 30.2812 3.03125C29.6875 2.6875 29.0312 2.53125 28.2812 2.53125C26.0937 2.53125 23.3125 4.15625 20.5 6.875C17.6875 4.15625 14.9062 2.53125 12.7187 2.53125C11.9687 2.53125 11.3125 2.6875 10.7187 3.03125C8.71875 4.1875 8 7.09375 8.65625 11.1875C8.78125 11.9063 8.9375 12.6563 9.125 13.4063C8.375 13.625 7.65625 13.8438 6.96875 14.125C3.0625 15.625 0.9375 17.6875 0.9375 20C0.9375 22.3125 3.09375 24.375 6.96875 25.875C7.65625 26.125 8.375 26.375 9.125 26.5938C8.9375 27.3438 8.78125 28.0938 8.65625 28.8125C8 32.9375 8.71875 35.8438 10.7187 36.9688C11.3125 37.3125 11.9687 37.4688 12.7187 37.4688C14.9375 37.4688 17.7187 35.8438 20.5 33.125C23.3125 35.8438 26.0937 37.4688 28.2812 37.4688C29.0312 37.4688 29.6875 37.3125 30.2812 36.9688C32.2812 35.8125 33 32.9063 32.3437 28.8125C32.2187 28.0938 32.0625 27.3438 31.875 26.5938C32.625 26.375 33.3437 26.1563 34.0312 25.875C37.9375 24.375 40.0625 22.3125 40.0625 20C40.0625 17.6875 37.9375 15.625 34.0312 14.125ZM29.4062 4.59375C30.6875 5.34375 31.125 7.65625 30.5937 10.9375C30.5 11.5938 30.3437 12.2813 30.1562 13C28.5312 12.625 26.8125 12.375 25 12.2188C23.9375 10.7188 22.8437 9.375 21.75 8.15625C24.0625 5.875 26.4062 4.3125 28.3125 4.3125C28.7187 4.3125 29.0937 4.40625 29.4062 4.59375ZM25.9062 23.125C25.3437 24.125 24.6875 25.125 24 26.125C22.8437 26.2188 21.6875 26.25 20.5 26.25C19.2812 26.25 18.125 26.2188 17 26.125C16.3125 25.125 15.6875 24.125 15.125 23.125C14.5312 22.0938 13.9687 21.0313 13.4687 20C13.9687 18.9688 14.5312 17.9063 15.125 16.875C15.6875 15.875 16.3437 14.875 17.0312 13.875C18.1875 13.7813 19.3437 13.75 20.5312 13.75C21.75 13.75 22.9062 13.7813 24.0312 13.875C24.7187 14.875 25.3437 15.875 25.9062 16.875C26.5 17.9063 27.0625 18.9688 27.5625 20C27.0312 21.0313 26.5 22.0625 25.9062 23.125ZM28.5 22.0938C28.9687 23.1875 29.3437 24.25 29.6875 25.3125C28.625 25.5625 27.5 25.75 26.3125 25.9063C26.6875 25.3125 27.0937 24.6875 27.4375 24.0313C27.8125 23.375 28.1562 22.7188 28.5 22.0938ZM20.5 30.5625C19.75 29.75 19.0312 28.875 18.3437 27.9688C19.0625 28 19.7812 28.0313 20.5 28.0313C21.2187 28.0313 21.9375 28 22.6562 27.9688C21.9687 28.875 21.25 29.75 20.5 30.5625ZM14.6875 25.875C13.5 25.7188 12.375 25.5313 11.3125 25.2813C11.6562 24.25 12.0312 23.1563 12.5 22.0625C12.8437 22.6875 13.1875 23.3438 13.5625 23.9688C13.9375 24.6563 14.3125 25.25 14.6875 25.875ZM12.5 17.9063C12.0312 16.8125 11.6562 15.75 11.3125 14.6875C12.375 14.4375 13.5 14.25 14.6875 14.0938C14.3125 14.6875 13.9062 15.3125 13.5625 15.9688C13.1875 16.625 12.8437 17.2812 12.5 17.9063ZM20.5 9.4375C21.25 10.25 21.9687 11.125 22.6562 12.0313C21.9375 12 21.2187 11.9688 20.5 11.9688C19.7812 11.9688 19.0625 12 18.3437 12.0313C19.0312 11.125 19.75 10.25 20.5 9.4375ZM27.4375 16L26.3125 14.125C27.5 14.2813 28.625 14.4688 29.6875 14.7188C29.3437 15.75 28.9687 16.8438 28.5 17.9375C28.1562 17.2813 27.8125 16.625 27.4375 16ZM10.4062 10.9375C9.875 7.65625 10.3125 5.34375 11.5937 4.59375C11.9062 4.40625 12.2812 4.3125 12.6875 4.3125C14.5625 4.3125 16.9062 5.84375 19.25 8.15625C18.1562 9.34375 17.0625 10.7188 16 12.2188C14.1875 12.375 12.4687 12.6563 10.8437 13C10.6562 12.2813 10.5312 11.5938 10.4062 10.9375ZM2.6875 20C2.6875 18.5313 4.46875 16.9688 7.59375 15.8125C8.21875 15.5625 8.90625 15.3438 9.59375 15.1563C10.0937 16.7188 10.7187 18.375 11.4687 20.0313C10.7187 21.6875 10.0625 23.3125 9.59375 24.875C5.28125 23.625 2.6875 21.75 2.6875 20ZM11.5937 35.4063C10.3125 34.6563 9.875 32.3438 10.4062 29.0625C10.5 28.4063 10.6562 27.7188 10.8437 27C12.4687 27.375 14.1875 27.625 16 27.7813C17.0625 29.2813 18.1562 30.625 19.25 31.8438C16.9375 34.125 14.5937 35.6875 12.6875 35.6875C12.2812 35.6875 11.9062 35.5938 11.5937 35.4063ZM30.5937 29.0625C31.125 32.3438 30.6875 34.6563 29.4062 35.4063C29.0937 35.5938 28.7187 35.6875 28.3125 35.6875C26.4375 35.6875 24.0937 34.1563 21.75 31.8438C22.8437 30.6563 23.9375 29.2813 25 27.7813C26.8125 27.625 28.5312 27.3438 30.1562 27C30.3437 27.7188 30.4687 28.4063 30.5937 29.0625ZM33.4062 24.1875C32.7812 24.4375 32.0937 24.6563 31.4062 24.8438C30.9062 23.2813 30.2812 21.625 29.5312 19.9688C30.2812 18.3125 30.9375 16.6875 31.4062 15.125C35.7187 16.375 38.3125 18.25 38.3125 20C38.3125 21.4688 36.5 23.0313 33.4062 24.1875Z" fill="#0EA5E9"/>
</g>
<defs>
<clipPath id="clip0_2105_648">
<rect width="40" height="40" fill="white" transform="translate(0.5)"/>
</clipPath>
</defs>
</svg>
