<svg width="40" height="40" viewBox="0 0 40 40" fill="none" xmlns="http://www.w3.org/2000/svg">
<path d="M6.22813 8.45508L0.04875 14.6426L9.57875 24.202L0 33.8088L6.16094 40.0004L15.7594 30.3898L25.3053 39.9307L31.4856 33.7432L6.22813 8.45508Z" fill="#53B9FF"/>
<path d="M21.956 24.2031L15.7598 30.3906L25.3057 39.9316L31.486 33.7441L21.956 24.2031Z" fill="#119EFF"/>
<path d="M21.956 24.2031L15.7598 30.3906L18.1451 32.7625L21.956 24.2031Z" fill="black" fill-opacity="0.2"/>
<path d="M30.4017 15.7788L40.0001 6.16813L33.8173 0L24.2226 9.59094L14.6742 0.04875L8.49512 6.23656L33.7514 31.5247L39.9317 25.3372L30.4017 15.7788Z" fill="#53B9FF"/>
<path d="M18.0251 15.7791L24.2214 9.59164L14.6742 0.0488281L8.49512 6.23695L18.0251 15.7791Z" fill="#119EFF"/>
<path d="M18.0254 15.7794L24.2216 9.59188L21.8363 7.21875L18.0254 15.7794Z" fill="black" fill-opacity="0.2"/>
</svg>
