<svg width="49" height="49" viewBox="0 0 49 49" fill="none" xmlns="http://www.w3.org/2000/svg">
<path d="M29.8531 0.834565C25.7849 0.388478 21.6773 0.388478 17.6091 0.834565L13.3975 1.29751C13.0953 1.33096 12.8144 1.4639 12.6022 1.67385C12.3901 1.8838 12.2596 2.15789 12.233 2.44977L11.9083 5.96507C11.3639 11.8742 11.3639 17.8181 11.9083 23.7273L12.233 27.2426C12.2621 27.5592 12.4132 27.854 12.6566 28.0686C12.9 28.2833 13.218 28.4024 13.548 28.4025H19.0165V47.2304C19.017 47.4936 19.1022 47.7502 19.2605 47.9648C19.4187 48.1793 19.6421 48.3413 19.9 48.4284C20.1578 48.5155 20.4373 48.5233 20.7 48.4509C20.9627 48.3785 21.1956 48.2294 21.3665 48.0241L22.399 46.7777C28.5503 39.3597 33.4488 31.0536 36.9138 22.1655L37.4155 20.8759C37.4906 20.6834 37.5162 20.4763 37.49 20.2722C37.4639 20.0682 37.3867 19.8733 37.2653 19.7042C37.1438 19.5352 36.9815 19.397 36.7925 19.3016C36.6034 19.2062 36.3932 19.1564 36.1798 19.1564H29.0161L35.1552 2.9992C35.2241 2.8184 35.2494 2.6249 35.2293 2.43329C35.2092 2.24169 35.1442 2.05698 35.0392 1.89311C34.9342 1.72924 34.7919 1.59049 34.6231 1.48731C34.4543 1.38413 34.2633 1.31923 34.0647 1.29751L29.8531 0.834565Z" fill="white"/>
</svg>
