<svg width="84" height="149" viewBox="0 0 84 149" fill="none" xmlns="http://www.w3.org/2000/svg">
<path d="M58.0593 3.50369C45.8547 2.16544 33.5319 2.16544 21.3273 3.50369L8.6925 4.89252C7.78596 4.99287 6.9432 5.39169 6.30668 6.02154C5.67016 6.6514 5.27893 7.47366 5.19912 8.34932L4.22477 18.8952C2.59174 36.6226 2.59174 54.4544 4.22477 72.1818L5.19912 82.7277C5.28624 83.6777 5.73955 84.5619 6.46972 85.2059C7.19989 85.85 8.15399 86.2073 9.14403 86.2074H25.5495V142.691C25.5509 143.481 25.8066 144.251 26.2814 144.894C26.7561 145.538 27.4264 146.024 28.1999 146.285C28.9734 146.546 29.812 146.57 30.6 146.353C31.388 146.135 32.0867 145.688 32.5996 145.072L35.6969 141.333C54.151 119.079 68.8463 94.1608 79.2414 67.4964L80.7465 63.6276C80.9719 63.0502 81.0486 62.4289 80.9701 61.8167C80.8916 61.2046 80.6602 60.6199 80.2958 60.1127C79.9313 59.6056 79.4446 59.1911 78.8775 58.9049C78.3103 58.6186 77.6795 58.4691 77.0392 58.4691H55.5482L73.9657 9.99759C74.1722 9.45519 74.2482 8.87469 74.1879 8.29987C74.1276 7.72506 73.9325 7.17095 73.6175 6.67934C73.3025 6.18773 72.8756 5.77146 72.3692 5.46193C71.8628 5.1524 71.29 4.9577 70.6941 4.89252L58.0593 3.50369Z" fill="white"/>
</svg>
