<svg width="41" height="40" viewBox="0 0 41 40" fill="none" xmlns="http://www.w3.org/2000/svg">
<g clip-path="url(#clip0_2105_652)">
<path d="M19.6738 15.3389C19.9904 14.871 20.3367 14.8115 20.6181 14.8115C20.8995 14.8115 21.3674 14.871 21.684 15.3389C24.1788 18.7761 28.2974 25.6222 31.3355 30.6727C33.3165 33.9662 34.8381 36.4956 35.1503 36.8175C36.3221 38.0261 37.9296 37.2727 38.8634 35.9022C39.783 34.5527 40.038 33.6051 40.038 32.5941C40.038 31.9055 26.7174 7.05972 25.3759 4.99159C24.0858 3.00262 23.6655 2.5 21.4573 2.5H19.805C17.6037 2.5 17.2854 3.00234 15.9954 4.99159C14.6539 7.06 1.33301 31.9055 1.33301 32.5943C1.33301 33.6051 1.58827 34.5527 2.50754 35.9019C3.44166 37.273 5.04914 38.0261 6.22091 36.8178C6.53311 36.4956 8.05477 33.9662 10.0361 30.6727C13.0736 25.6222 17.179 18.7761 19.6738 15.3389Z" fill="#000020"/>
</g>
<defs>
<clipPath id="clip0_2105_652">
<rect width="40" height="40" fill="white" transform="translate(0.5)"/>
</clipPath>
</defs>
</svg>
