<svg width="25" height="25" viewBox="0 0 25 25" fill="none" xmlns="http://www.w3.org/2000/svg">
<path d="M18.5 16.291C18.5 18.0244 17.8917 19.4993 16.675 20.716C15.4583 21.9327 13.9833 22.541 12.25 22.541C10.5167 22.541 9.04167 21.9327 7.825 20.716C6.60833 19.4993 6 18.0244 6 16.291V7.04102C6 5.79102 6.43767 4.72868 7.313 3.85402C8.18833 2.97935 9.25067 2.54168 10.5 2.54102C11.7493 2.54035 12.812 2.97802 13.688 3.85402C14.564 4.73002 15.0013 5.79235 15 7.04102V15.791C15 16.5577 14.7333 17.2077 14.2 17.741C13.6667 18.2744 13.0167 18.541 12.25 18.541C11.4833 18.541 10.8333 18.2744 10.3 17.741C9.76667 17.2077 9.5 16.5577 9.5 15.791V7.54102C9.5 7.25768 9.596 7.02035 9.788 6.82902C9.98 6.63768 10.2173 6.54168 10.5 6.54102C10.7827 6.54035 11.0203 6.63635 11.213 6.82902C11.4057 7.02168 11.5013 7.25902 11.5 7.54102V15.791C11.5 16.0077 11.571 16.187 11.713 16.329C11.855 16.471 12.034 16.5417 12.25 16.541C12.466 16.5403 12.6453 16.4693 12.788 16.328C12.9307 16.1867 13.0013 16.0077 13 15.791V7.04102C12.9833 6.34102 12.7377 5.74935 12.263 5.26602C11.7883 4.78268 11.2007 4.54102 10.5 4.54102C9.79933 4.54102 9.20767 4.78268 8.725 5.26602C8.24233 5.74935 8.00067 6.34102 8 7.04102V16.291C7.98333 17.4743 8.39167 18.4787 9.225 19.304C10.0583 20.1293 11.0667 20.5417 12.25 20.541C13.4167 20.541 14.4083 20.1287 15.225 19.304C16.0417 18.4793 16.4667 17.475 16.5 16.291V7.54102C16.5 7.25768 16.596 7.02035 16.788 6.82902C16.98 6.63768 17.2173 6.54168 17.5 6.54102C17.7827 6.54035 18.0203 6.63635 18.213 6.82902C18.4057 7.02168 18.5013 7.25902 18.5 7.54102V16.291Z" fill="#0EA5E9"/>
</svg>
