<svg width="49" height="49" viewBox="0 0 49 49" fill="none" xmlns="http://www.w3.org/2000/svg">
<path d="M24.5 4.5C13.46 4.5 4.5 13.46 4.5 24.5C4.5 35.54 13.46 44.5 24.5 44.5C35.54 44.5 44.5 35.54 44.5 24.5C44.5 13.46 35.54 4.5 24.5 4.5ZM33.78 18.1C33.48 21.26 32.18 28.94 31.52 32.48C31.24 33.98 30.68 34.48 30.16 34.54C29 34.64 28.12 33.78 27 33.04C25.24 31.88 24.24 31.16 22.54 30.04C20.56 28.74 21.84 28.02 22.98 26.86C23.28 26.56 28.4 21.9 28.5 21.48C28.5139 21.4164 28.512 21.3503 28.4946 21.2876C28.4772 21.2249 28.4447 21.1673 28.4 21.12C28.28 21.02 28.12 21.06 27.98 21.08C27.8 21.12 25 22.98 19.54 26.66C18.74 27.2 18.02 27.48 17.38 27.46C16.66 27.44 15.3 27.06 14.28 26.72C13.02 26.32 12.04 26.1 12.12 25.4C12.16 25.04 12.66 24.68 13.6 24.3C19.44 21.76 23.32 20.08 25.26 19.28C30.82 16.96 31.96 16.56 32.72 16.56C32.88 16.56 33.26 16.6 33.5 16.8C33.7 16.96 33.76 17.18 33.78 17.34C33.76 17.46 33.8 17.82 33.78 18.1Z" fill="#FAFAFA"/>
</svg>
