<svg width="112" height="112" viewBox="0 0 112 112" fill="none" xmlns="http://www.w3.org/2000/svg">
<path fill-rule="evenodd" clip-rule="evenodd" d="M76.2686 56.828C77.648 55.2576 77.8713 52.9821 76.8237 51.1735C75.776 49.3649 73.691 48.4266 71.6425 48.8419L66.3347 50.0593C64.5001 50.5007 62.6403 49.4318 62.0981 47.6245L60.4912 42.3653C59.7922 40.4395 57.9625 39.1571 55.9138 39.1571C53.865 39.1571 52.0354 40.4395 51.3364 42.3653L49.7294 47.6245C49.1873 49.4318 47.3275 50.5007 45.4929 50.0593L40.1851 48.8419C38.1366 48.4266 36.0516 49.3649 35.0039 51.1735C33.9562 52.9821 34.1796 55.2576 35.559 56.828L39.3085 60.821C40.5485 62.2074 40.5485 64.3042 39.3085 65.6906L35.559 69.7323C34.1796 71.3027 33.9562 73.5782 35.0039 75.3868C36.0516 77.1954 38.1366 78.1337 40.1851 77.7184L45.4929 76.5011C47.3275 76.0596 49.1873 77.1285 49.7294 78.9359L51.3364 84.195C52.0354 86.1208 53.865 87.4032 55.9138 87.4032C57.9625 87.4032 59.7922 86.1208 60.4912 84.195L62.0981 78.9358C62.6403 77.1285 64.5001 76.0596 66.3347 76.5011L71.6425 77.7184C73.691 78.1337 75.776 77.1954 76.8237 75.3868C77.8713 73.5782 77.648 71.3027 76.2686 69.7323L72.519 65.7393C71.279 64.3529 71.279 62.2561 72.519 60.8697L76.2686 56.828ZM55.9138 68.7097C52.9286 68.7097 50.5086 66.2897 50.5086 63.3045C50.5086 60.3193 52.9286 57.8993 55.9138 57.8993C58.899 57.8993 61.319 60.3193 61.319 63.3045C61.319 66.2897 58.899 68.7097 55.9138 68.7097ZM47.392 8.52176C47.392 13.2282 51.2074 17.0435 55.9138 17.0435C60.6202 17.0435 64.4355 13.2282 64.4355 8.52176C64.4355 3.81532 60.6202 0 55.9138 0C51.2074 0 47.392 3.81532 47.392 8.52176ZM71.253 34.087C71.6601 34.0833 72.0407 33.884 72.2756 33.5514C72.4497 33.1983 72.4497 32.7844 72.2756 32.4314C69.7873 25.4798 63.1999 20.841 55.8164 20.841C48.4329 20.841 41.8455 25.4798 39.3572 32.4314C39.1831 32.7844 39.1831 33.1983 39.3572 33.5514C39.5921 33.884 39.9727 34.0833 40.3798 34.087H71.253ZM69.2077 95.2002C60.5857 98.1205 51.2419 98.1205 42.6198 95.2002C40.1129 94.4398 37.4536 95.7991 36.6016 98.2765C35.7496 100.754 37.0102 103.461 39.4546 104.404C44.7549 106.207 50.3152 107.128 55.9138 107.131C61.479 107.203 67.0198 106.381 72.3243 104.696C74.8787 103.835 76.2518 101.066 75.3913 98.5118C74.5308 95.9572 71.7625 94.5837 69.2077 95.4437V95.2002ZM74.4182 18.9427C90.7075 27.0347 99.7841 44.8319 96.7695 62.7688C96.3392 65.4583 98.1706 67.9873 100.86 68.4176C103.549 68.8479 106.078 67.0165 106.509 64.3271C106.92 61.5713 107.099 58.7859 107.044 56.0001C107.114 36.621 96.1609 18.8877 78.8008 10.2748C77.2368 9.33371 75.2778 9.34631 73.726 10.3075C72.1742 11.2686 71.2903 13.0168 71.4361 14.8363C71.582 16.6558 72.7331 18.241 74.4182 18.9427ZM10.2371 68.1741C11.6757 68.1926 13.0488 67.5741 13.9882 66.4845C14.9276 65.3948 15.337 63.9455 15.1067 62.5254C14.7657 60.3659 14.5705 58.1859 14.5224 56.0001C14.464 40.2949 23.3404 25.9227 37.4094 18.9427C39.8154 17.745 40.7961 14.8245 39.6007 12.4174C38.403 10.0115 35.4826 9.03071 33.0755 10.2261C15.6968 18.8508 4.72684 36.5991 4.78322 56.0001C4.77428 58.6912 4.98601 61.3785 5.41626 64.0349C5.77772 66.4174 7.8274 68.1772 10.2371 68.1741ZM8.4354 86.435C8.4354 91.1414 12.2507 94.9568 16.9572 94.9568C21.6636 94.9568 25.4789 91.1414 25.4789 86.435C25.4789 81.7286 21.6636 77.9132 16.9572 77.9132C12.2507 77.9132 8.4354 81.7286 8.4354 86.435ZM32.2963 112C32.7035 111.997 33.084 111.797 33.3189 111.465C33.493 111.112 33.493 110.698 33.3189 110.345C30.8307 103.393 24.2433 98.7542 16.8598 98.7542C9.47626 98.7542 2.88885 103.393 0.4006 110.345C0.226493 110.698 0.226493 111.112 0.4006 111.465C0.6355 111.797 1.01604 111.997 1.42321 112L32.2963 112ZM86.3486 86.435C86.3486 91.1414 90.164 94.9568 94.8704 94.9568C99.5768 94.9568 103.392 91.1414 103.392 86.435C103.392 81.7286 99.5768 77.9132 94.8704 77.9132C90.164 77.9132 86.3486 81.7286 86.3486 86.435ZM110.21 112C110.617 111.997 110.997 111.797 111.232 111.465C111.406 111.112 111.406 110.698 111.232 110.345C108.744 103.393 102.157 98.7542 94.773 98.7542C87.3895 98.7542 80.8021 103.393 78.3138 110.345C78.1397 110.698 78.1397 111.112 78.3138 111.465C78.5487 111.797 78.9293 111.997 79.3364 112L110.21 112Z" fill="#F59E0B"/>
</svg>
