<svg width="118" height="118" viewBox="0 0 118 118" fill="none" xmlns="http://www.w3.org/2000/svg">
<path fill-rule="evenodd" clip-rule="evenodd" d="M81.7038 104.836C81.9989 104.992 82.1989 105.283 82.2394 105.615C82.99 109.65 86.5106 112.577 90.6151 112.578H102.789C104.795 112.552 106.415 110.932 106.441 108.926V74.8392C106.441 72.8221 104.806 71.187 102.789 71.187L90.6151 71.187C89.1662 71.1822 87.7406 71.5512 86.476 72.2583C86.1571 72.4315 85.7722 72.4315 85.4534 72.2583L71.5264 66.9504C68.5123 65.8775 65.1921 66.0707 62.3229 67.4861L55.0672 70.9922C54.7182 71.1827 54.2962 71.1827 53.9472 70.9922C51.08 69.3816 47.63 69.184 44.5976 70.4566L35.1506 74.4496C34.6667 74.6715 34.0946 74.5531 33.7384 74.1574C32.1445 72.2602 29.7885 71.1714 27.3106 71.187H15.1367C13.1196 71.187 11.4845 72.8221 11.4845 74.8392V108.926C11.5107 110.932 13.1306 112.552 15.1367 112.578L27.3106 112.578C30.3331 112.546 33.1125 110.916 34.615 108.293C34.8256 107.928 35.2163 107.705 35.6376 107.709L37.1958 107.709C37.4508 107.638 37.7201 107.638 37.975 107.709L47.7141 115.451C50.2695 117.989 54.332 118.179 57.1124 115.89L67.8255 107.076L68.3611 106.832L80.6325 104.398C81.0458 104.308 81.4717 104.482 81.7038 104.836ZM68.4098 97.5801L53.0707 110.533C53.0707 110.533 52.5837 110.095 41.2376 101.184C40.6083 100.664 39.8134 100.388 38.9976 100.404H37.0498C36.3774 100.404 35.8324 99.8594 35.8324 99.1871V82.9227C35.8307 82.4371 36.1177 81.9969 36.5628 81.8027L47.3733 76.9331C47.5962 76.7917 47.8808 76.7917 48.1037 76.9331C48.2255 77.144 48.2255 77.4039 48.1037 77.6148C47.0363 82.1433 49.321 86.7944 53.5576 88.7175C55.9757 89.7925 58.7361 89.7925 61.1542 88.7175C61.625 88.5191 62.1695 88.6358 62.5177 89.0096L68.702 95.827C68.924 96.0646 69.046 96.3785 69.0429 96.7036C68.9617 97.0705 68.7326 97.3876 68.4098 97.5801ZM77.2725 97.5801C76.9918 97.3714 76.8144 97.0521 76.7855 96.7036C76.716 95.1413 76.1534 93.6411 75.1786 92.4183L65.829 82.1435C64.7929 81.013 63.1729 80.6273 61.7385 81.1696L58.3298 82.5818C57.7878 82.8056 57.1786 82.8027 56.6387 82.574C56.0987 82.3452 55.673 81.9095 55.4568 81.3644C54.9211 79.9522 55.4568 79.3679 56.5281 78.5887L65.5368 74.2061C66.6505 73.7832 67.8805 73.7832 68.9942 74.2061L81.3142 79.0757C81.7875 79.243 82.1011 79.6938 82.0934 80.1957L82.0934 96.4114C82.0867 96.9926 81.685 97.4947 81.1194 97.6288L78.2464 98.1644C77.7964 98.1618 77.401 97.8652 77.2725 97.434V97.5801ZM61.5924 2.47725L67.2898 14.7486H78.4412C79.6432 14.6495 80.7676 15.3518 81.2058 16.4755C81.644 17.5992 81.2921 18.8773 80.3403 19.6182L70.6012 29.0651L75.909 41.2878C76.3805 42.4391 76.0712 43.7628 75.1383 44.5859C74.2054 45.4091 72.8535 45.5512 71.7699 44.94L58.9629 37.5382L46.1072 44.6965C45.0235 45.3077 43.6716 45.1656 42.7387 44.3424C41.8058 43.5193 41.4965 42.1956 41.968 41.0443L47.2759 28.9191L37.5367 19.4721C36.4969 18.7722 36.0815 17.4448 36.5369 16.277C36.9923 15.1093 38.1967 14.4135 39.4359 14.6025H50.4898L56.3333 2.47725C56.8466 1.50028 57.8592 0.888428 58.9629 0.888428C60.0665 0.888428 61.0791 1.50028 61.5924 2.47725ZM38.3159 50.053C34.8493 47.1728 33.7159 42.3413 35.5402 38.2199L38.8515 30.6234L35.1019 26.9225H31.0115L25.3141 14.6512C24.837 13.6152 23.8007 12.9515 22.6602 12.9515C21.5196 12.9515 20.4833 13.6152 20.0062 14.6512L14.4062 26.9225H3.35228C2.11318 26.7336 0.908754 27.4293 0.453325 28.5971C-0.00210178 29.7648 0.413292 31.0923 1.45315 31.7921L11.1923 41.2391L5.73838 53.3156C5.21997 54.4597 5.50487 55.808 6.44182 56.6445C7.37877 57.4811 8.75054 57.612 9.82882 56.9678L22.7332 49.5661L35.5889 56.9678C36.6726 57.579 38.0244 57.4369 38.9573 56.6138C39.8903 55.7906 40.1996 54.467 39.728 53.3156L38.3159 50.053ZM79.6099 50.053C83.0765 47.1728 84.2098 42.3413 82.3855 38.2199L79.0742 30.6234L82.8238 26.9225H86.9142L92.6116 14.6512C93.1097 13.6702 94.1167 13.0521 95.2169 13.0521C96.3171 13.0521 97.324 13.6702 97.8221 14.6512L103.519 26.9225H114.573C115.813 26.7336 117.017 27.4293 117.472 28.5971C117.928 29.7648 117.512 31.0923 116.473 31.7921L106.733 41.2391L112.041 53.4617C112.56 54.6058 112.275 55.954 111.338 56.7906C110.401 57.6272 109.029 57.7581 107.951 57.1139L95.1925 49.5661L82.3368 56.9678C81.2532 57.579 79.9013 57.4369 78.9684 56.6138C78.0355 55.7906 77.7262 54.467 78.1977 53.3156L79.6099 50.053Z" fill="#0EA5E9"/>
</svg>
