<svg width="118" height="117" viewBox="0 0 118 117" fill="none" xmlns="http://www.w3.org/2000/svg">
<path fill-rule="evenodd" clip-rule="evenodd" d="M114.997 0.846091C113.649 -0.0726783 111.931 -0.255488 110.42 0.359134L58.705 21.5418L6.99004 0.359134C5.47899 -0.255488 3.76056 -0.0726783 2.41264 0.846091C1.07069 1.75315 0.267585 3.26809 0.270025 4.88784V112.019C0.267585 113.638 1.07069 115.153 2.41264 116.06C3.21874 116.602 4.1684 116.89 5.1396 116.888C5.77271 116.896 6.40125 116.78 6.99004 116.547L58.705 95.3646L110.42 116.547C111.009 116.78 111.637 116.896 112.27 116.888C114.96 116.888 117.14 114.708 117.14 112.019V4.88784C117.142 3.26809 116.339 1.75315 114.997 0.846091ZM107.401 12.1435V41.361L71.5606 26.7522L107.401 12.1435ZM107.401 64.9297L58.705 84.8463L10.0092 64.9297V51.9767L58.705 32.0601L107.401 51.9767V64.9297ZM45.8493 26.8009L10.0092 41.4584V12.2409L45.8493 26.8009ZM10.0092 104.763V75.5454L45.8493 90.1541L10.0092 104.763ZM71.5606 90.1541L107.401 75.5454V104.763L71.5606 90.1541Z" fill="#22C55E"/>
</svg>
