<svg width="49" height="49" viewBox="0 0 49 49" fill="none" xmlns="http://www.w3.org/2000/svg">
<path d="M24.502 4.5C35.548 4.5 44.502 13.454 44.502 24.5C44.502 35.546 35.548 44.5 24.502 44.5C20.9675 44.5061 17.4951 43.5707 14.442 41.79L4.50998 44.5L7.21398 34.564C5.4319 31.5099 4.49579 28.036 4.50198 24.5C4.50198 13.454 13.456 4.5 24.502 4.5ZM17.686 15.1L17.286 15.116C17.0274 15.1338 16.7747 15.2017 16.542 15.316C16.3251 15.439 16.1271 15.5926 15.954 15.772C15.714 15.998 15.578 16.194 15.432 16.384C14.6922 17.3458 14.2939 18.5266 14.3 19.74C14.304 20.72 14.56 21.674 14.96 22.566C15.778 24.37 17.124 26.28 18.9 28.05C19.328 28.476 19.748 28.904 20.2 29.302C22.4068 31.2448 25.0365 32.6459 27.88 33.394L29.016 33.568C29.386 33.588 29.756 33.56 30.128 33.542C30.7104 33.5113 31.279 33.3536 31.794 33.08C32.0557 32.9447 32.3113 32.7979 32.56 32.64C32.56 32.64 32.6447 32.5827 32.81 32.46C33.08 32.26 33.246 32.118 33.47 31.884C33.638 31.7107 33.778 31.5093 33.89 31.28C34.046 30.954 34.202 30.332 34.266 29.814C34.314 29.418 34.3 29.202 34.294 29.068C34.286 28.854 34.108 28.632 33.914 28.538L32.75 28.016C32.75 28.016 31.01 27.258 29.946 26.774C29.8346 26.7255 29.7153 26.6977 29.594 26.692C29.4571 26.6777 29.3188 26.693 29.1884 26.7368C29.0579 26.7806 28.9384 26.852 28.838 26.946C28.828 26.942 28.694 27.056 27.248 28.808C27.165 28.9195 27.0507 29.0038 26.9196 29.0501C26.7885 29.0964 26.6466 29.1026 26.512 29.068C26.3816 29.0333 26.254 28.9891 26.13 28.936C25.882 28.832 25.796 28.792 25.626 28.72C24.4777 28.2198 23.4149 27.543 22.476 26.714C22.224 26.494 21.99 26.254 21.75 26.022C20.9632 25.2684 20.2775 24.416 19.71 23.486L19.592 23.296C19.5085 23.1676 19.4401 23.03 19.388 22.886C19.312 22.592 19.51 22.356 19.51 22.356C19.51 22.356 19.996 21.824 20.222 21.536C20.442 21.256 20.628 20.984 20.748 20.79C20.984 20.41 21.058 20.02 20.934 19.718C20.374 18.35 19.7953 16.9893 19.198 15.636C19.08 15.368 18.73 15.176 18.412 15.138C18.304 15.1247 18.196 15.114 18.088 15.106C17.8194 15.0906 17.5502 15.0933 17.282 15.114L17.686 15.1Z" fill="#FAFAFA"/>
</svg>
